<svg xmlns="http://www.w3.org/2000/svg" width="60" height="53.333" viewBox="0 0 60 53.333">
  <path id="Icon_awesome-house-damage" data-name="Icon awesome-house-damage" d="M30,11.975,7.236,32.053a4.82,4.82,0,0,1-.57.349V51.667a1.666,1.666,0,0,0,1.667,1.667H23.878L20,45.749l10.845-6.667L24.578,26.663,40,40.911,29.155,47.578l4.158,5.755H51.666a1.666,1.666,0,0,0,1.667-1.667V32.406a4.86,4.86,0,0,1-.548-.333ZM59.447,24.612l-6.114-5.4V5a1.666,1.666,0,0,0-1.667-1.667H45A1.666,1.666,0,0,0,43.333,5v5.384L32.786,1.074a4.151,4.151,0,0,0-5.568,0L.553,24.612a1.667,1.667,0,0,0-.126,2.354l2.229,2.481a1.667,1.667,0,0,0,2.354.126L28.9,8.5a1.668,1.668,0,0,1,2.205,0L54.99,29.573a1.668,1.668,0,0,0,2.354-.126l2.229-2.481A1.666,1.666,0,0,0,59.447,24.612Z" transform="translate(0)"/>
</svg>
